<svg width="53" height="68" viewBox="0 0 53 68" fill="none" xmlns="http://www.w3.org/2000/svg">
<path d="M37.0175 0H1.7765C0.795357 0 0 0.795357 0 2.33871V66.7857C0 67.2046 0.795357 68 1.7765 68H50.4378C51.4189 68 52.2143 67.2046 52.2143 66.7857V15.759C52.2143 14.9139 52.1014 14.6419 51.9022 14.4415L37.7728 0.312071C37.5724 0.112929 37.3004 0 37.0175 0Z" fill="#E7E7E7"/>
<path d="M37.6426 0.18335V14.5714H52.0306L37.6426 0.18335Z" fill="#CACACA"/>
<path d="M15.8027 40.4648C15.3801 40.4648 14.9745 40.3275 14.6285 40.0689C13.3644 39.1205 13.1944 38.0653 13.2745 37.3465C13.4955 35.3696 15.9399 33.3005 20.542 31.1925C22.3683 27.1902 24.106 22.259 25.1417 18.1389C23.9299 15.5015 22.752 12.0796 23.6105 10.0724C23.9117 9.36933 24.2869 8.83018 24.9875 8.59704C25.2644 8.50475 25.9638 8.38818 26.2212 8.38818C26.8332 8.38818 27.3712 9.17625 27.7525 9.66197C28.1107 10.1185 28.923 11.0863 27.2995 17.9215C28.9364 21.3021 31.2557 24.7458 33.4778 27.104C35.0697 26.8162 36.4395 26.6693 37.5554 26.6693C39.457 26.6693 40.6093 27.1125 41.0793 28.0256C41.4678 28.7809 41.3087 29.6637 40.6057 30.6485C39.9293 31.5944 38.9967 32.0947 37.91 32.0947C36.4334 32.0947 34.714 31.1621 32.7966 29.32C29.3517 30.0401 25.3287 31.3248 22.0769 32.7468C21.0617 34.9009 20.0891 36.6361 19.1832 37.9087C17.9386 39.6512 16.8652 40.4648 15.8027 40.4648ZM19.0351 34.2403C16.4402 35.6987 15.3825 36.8972 15.306 37.5723C15.2939 37.684 15.2611 37.9779 15.8294 38.4126C16.0103 38.3555 17.0667 37.8735 19.0351 34.2403ZM35.5943 28.8465C36.584 29.6078 36.8256 29.9928 37.4728 29.9928C37.757 29.9928 38.5669 29.9806 38.9421 29.4573C39.123 29.2035 39.1935 29.0408 39.2214 28.9533C39.072 28.8744 38.8741 28.7141 37.7946 28.7141C37.1814 28.7153 36.4103 28.742 35.5943 28.8465ZM26.5236 20.854C25.6554 23.8582 24.5091 27.1015 23.2766 30.0389C25.8145 29.0541 28.5733 28.1944 31.1646 27.586C29.5253 25.682 27.8872 23.3045 26.5236 20.854ZM25.7865 10.5788C25.6675 10.6188 24.1715 12.7123 25.9031 14.4839C27.0555 11.9157 25.8387 10.5618 25.7865 10.5788Z" fill="#C4161C"/>
<path d="M50.4378 68H1.7765C0.795357 68 0 67.2047 0 66.2235V47.3572H52.2143V66.2235C52.2143 67.2047 51.4189 68 50.4378 68Z" fill="#C4161C"/>
<path d="M13.2173 64.3571H11.2246V52.1219H14.7436C15.2633 52.1219 15.7782 52.2045 16.287 52.3709C16.7958 52.5372 17.2523 52.7862 17.6567 53.1177C18.061 53.4492 18.3877 53.8511 18.6366 54.321C18.8855 54.7909 19.0106 55.3192 19.0106 55.9069C19.0106 56.5274 18.905 57.0884 18.6949 57.5923C18.4848 58.0962 18.191 58.52 17.8145 58.8624C17.4381 59.2049 16.984 59.4708 16.4533 59.659C15.9227 59.8472 15.335 59.9407 14.6938 59.9407H13.216L13.2173 64.3571ZM13.2173 53.6325V58.4799H15.0435C15.2864 58.4799 15.5268 58.4387 15.766 58.3549C16.004 58.2723 16.2226 58.1363 16.4218 57.9481C16.6209 57.7599 16.7812 57.4976 16.9026 57.16C17.024 56.8225 17.0848 56.4047 17.0848 55.9069C17.0848 55.7077 17.0568 55.477 17.0022 55.2184C16.9463 54.9585 16.8334 54.7096 16.6622 54.4716C16.4898 54.2336 16.2493 54.0344 15.9397 53.8742C15.63 53.7139 15.2196 53.6337 14.7108 53.6337L13.2173 53.6325Z" fill="white"/>
<path d="M31.2298 57.8995C31.2298 58.9062 31.1217 59.7671 30.9056 60.4811C30.6894 61.1951 30.4162 61.7925 30.0835 62.2746C29.7508 62.7567 29.378 63.1355 28.9627 63.4124C28.5474 63.6892 28.1467 63.8957 27.7593 64.0353C27.372 64.1737 27.0174 64.2624 26.6968 64.3012C26.3763 64.3377 26.1383 64.3571 25.9828 64.3571H21.3516V52.1219H25.0369C26.0666 52.1219 26.9713 52.2859 27.7508 52.6113C28.5304 52.9367 29.1788 53.3727 29.6937 53.9142C30.2086 54.4558 30.5923 55.0739 30.8473 55.7648C31.1023 56.4569 31.2298 57.1685 31.2298 57.8995ZM25.3198 62.8963C26.6701 62.8963 27.644 62.4652 28.2414 61.6019C28.8388 60.7385 29.1376 59.4878 29.1376 57.8497C29.1376 57.3409 29.0768 56.837 28.9554 56.3392C28.8328 55.8413 28.5984 55.3908 28.2499 54.9864C27.9014 54.5821 27.4278 54.2555 26.8304 54.0065C26.233 53.7576 25.4583 53.6325 24.5063 53.6325H23.3442V62.8963H25.3198Z" fill="white"/>
<path d="M36.1446 53.6325V57.4842H41.2579V58.8454H36.1446V64.3571H34.1191V52.1219H41.7716V53.6325H36.1446Z" fill="white"/>
</svg>
